<?xml version="1.0" encoding="UTF-8" standalone="no"?>
<!-- Created with Inkscape (http://www.inkscape.org/) -->

<svg
   width="118.91271mm"
   height="69.389229mm"
   viewBox="0 0 118.91271 69.389228"
   version="1.1"
   id="svg1"
   inkscape:version="1.3.2 (091e20e, 2023-11-25, custom)"
   sodipodi:docname="InfinityCards-logo.svg"
   xml:space="preserve"
   xmlns:inkscape="http://www.inkscape.org/namespaces/inkscape"
   xmlns:sodipodi="http://sodipodi.sourceforge.net/DTD/sodipodi-0.dtd"
   xmlns="http://www.w3.org/2000/svg"
   xmlns:svg="http://www.w3.org/2000/svg"><sodipodi:namedview
     id="namedview1"
     pagecolor="#505050"
     bordercolor="#eeeeee"
     borderopacity="1"
     inkscape:showpageshadow="0"
     inkscape:pageopacity="0"
     inkscape:pagecheckerboard="0"
     inkscape:deskcolor="#505050"
     inkscape:document-units="mm"
     inkscape:zoom="3.7558361"
     inkscape:cx="181.45094"
     inkscape:cy="124.07357"
     inkscape:window-width="3840"
     inkscape:window-height="2054"
     inkscape:window-x="3829"
     inkscape:window-y="-11"
     inkscape:window-maximized="1"
     inkscape:current-layer="g6" /><defs
     id="defs1" /><g
     inkscape:label="Layer 1"
     inkscape:groupmode="layer"
     id="layer1"
     transform="translate(19.040289,-60.686806)"><rect
       style="fill:#151515;fill-opacity:1;stroke-width:7.006;stroke-dasharray:none"
       id="rect10"
       width="118.91271"
       height="69.389229"
       x="-19.040289"
       y="60.686806"
       ry="8.6648483"
       rx="8.6648483" /><path
       style="font-size:22.5778px;line-height:0;font-family:Alatsi;-inkscape-font-specification:Alatsi;text-align:center;text-anchor:middle;fill:#0ddf72;fill-opacity:1;stroke-width:7.006"
       d="M 4.5535525,93.270393 V 77.533666 H 7.443511 v 15.736727 z m 5.7235145,0 V 82.026649 h 2.619025 l 0.05644,1.478846 q 0.440267,-0.677334 1.23049,-1.207913 0.790223,-0.541867 2.077158,-0.541867 1.715913,0 2.551291,1.083734 0.835379,1.083735 0.835379,3.002848 v 7.428096 h -2.889958 v -7.17974 q 0,-0.936979 -0.395112,-1.512713 -0.395111,-0.587023 -1.207912,-0.587023 -0.790223,0 -1.388535,0.587023 -0.598312,0.575734 -0.598312,1.512713 v 7.17974 z m 12.587143,0 v -8.873075 h -1.512713 v -2.370669 h 1.512713 v -1.738491 q 0,-1.343379 0.372534,-2.223913 0.383822,-0.880535 0.993423,-1.388535 0.609601,-0.508001 1.309512,-0.711201 0.711201,-0.214489 1.365957,-0.214489 0.936979,0 1.377246,0.169333 0.451556,0.169334 0.72249,0.327379 v 2.56258 q -0.248356,-0.327378 -0.72249,-0.474134 -0.474134,-0.158044 -0.835378,-0.158044 -0.790223,0 -1.320802,0.496711 -0.530578,0.485423 -0.530578,1.54658 v 1.806224 h 2.731914 v 2.370669 h -2.731914 v 8.873075 z m 7.428096,0 V 82.026649 h 2.935115 V 93.270393 Z M 30.179417,80.197847 v -3.002848 h 3.160893 v 3.002848 z m 5.712177,13.072546 V 82.026649 h 2.619025 l 0.05644,1.478846 q 0.440268,-0.677334 1.230491,-1.207913 0.790223,-0.541867 2.077157,-0.541867 1.715913,0 2.551292,1.083734 0.835378,1.083735 0.835378,3.002848 v 7.428096 h -2.889958 v -7.17974 q 0,-0.936979 -0.395112,-1.512713 -0.395111,-0.587023 -1.207912,-0.587023 -0.790223,0 -1.388535,0.587023 -0.598312,0.575734 -0.598312,1.512713 v 7.17974 z M 47.733641,80.197847 v -3.002848 h 3.160892 v 3.002848 z M 47.84653,93.270393 V 82.026649 h 2.935114 v 11.243744 z m 9.731069,0.338667 q -1.907824,0 -2.585158,-0.993423 -0.666045,-0.993423 -0.666045,-3.002847 v -5.215472 h -1.467557 v -2.370669 h 1.580446 l 0.158044,-2.370669 2.460981,-1.061157 v 3.431826 h 2.777069 v 2.370669 H 57.05831 v 5.147738 q 0,0.982135 0.270933,1.365957 0.282223,0.372534 0.767646,0.372534 0.496711,0 1.049867,-0.259645 0.553156,-0.259645 0.869246,-0.530578 l 0.541867,2.280358 q -0.349956,0.248356 -0.914401,0.440267 -0.553156,0.180622 -1.12889,0.282222 -0.564445,0.112889 -0.936979,0.112889 z m 5.667024,3.928538 1.828802,-5.03485 -4.222049,-10.476099 h 3.138315 l 1.670757,5.012271 0.72249,2.596447 0.722489,-2.596447 1.693335,-5.012271 h 2.957692 l -5.734761,15.510949 z"
       id="text1"
       aria-label="Infinity" /><g
       id="g6"><path
         d="m 48.135371,114.73012 v -11.24375 h 2.551292 l 0.135467,1.98685 q 0.180622,-0.44027 0.553156,-0.93698 0.383822,-0.49671 1.049868,-0.83538 0.677334,-0.34995 1.73849,-0.34995 0.327378,0 0.575734,0.0452 0.248356,0.0452 0.462845,0.13547 l -0.632178,2.95769 q -0.361245,-0.36124 -1.106313,-0.36124 -0.869245,0 -1.422401,0.36124 -0.553156,0.34996 -0.82409,0.79022 -0.259644,0.44027 -0.259644,0.67734 v 6.77334 z"
         id="text6"
         style="font-size:22.5778px;line-height:0;font-family:Alatsi;-inkscape-font-specification:Alatsi;text-align:center;fill:#ffffff;stroke-width:7.006"
         aria-label="r" /><path
         d="m 60.422398,115.01282 c -0.910638,0 -1.700861,-0.24459 -2.370669,-0.73378 -0.669808,-0.48919 -1.189097,-1.17781 -1.557868,-2.06587 -0.361245,-0.88806 -0.541868,-1.92664 -0.541868,-3.11574 0,-1.85138 0.376297,-3.30012 1.128891,-4.34622 0.760119,-1.04611 1.889009,-1.56916 3.38667,-1.56916 0.767645,0 1.414875,0.19191 1.94169,0.57573 0.534341,0.3763 0.880534,0.92193 1.038579,1.63689 l -0.2032,-1.64818 v -6.208892 h 2.77707 v 17.159132 h -2.57387 v -2.30294 c -0.2032,0.77517 -0.560682,1.40735 -1.072445,1.89654 -0.511763,0.48166 -1.162757,0.72249 -1.95298,0.72249 z m 0.654756,-2.23521 c 0.541867,0 1.02729,-0.28222 1.456268,-0.84666 0.428979,-0.57197 0.643468,-1.50143 0.643468,-2.78836 0,-1.17405 -0.165571,-2.08092 -0.496712,-2.72063 -0.331141,-0.6397 -0.842905,-0.95955 -1.53529,-0.95955 -0.353719,0 -0.707438,0.10913 -1.061157,0.32738 -0.346193,0.21825 -0.635941,0.59454 -0.869245,1.12889 -0.233304,0.52681 -0.349956,1.25306 -0.349956,2.17875 0,1.24178 0.214489,2.16747 0.643467,2.77707 0.428978,0.60207 0.95203,0.90311 1.569157,0.90311 z"
         id="text5"
         style="font-size:22.5778px;line-height:0;font-family:Alatsi;-inkscape-font-specification:Alatsi;text-align:center;fill:#ffffff;stroke-width:7.006"
         aria-label="d"
         sodipodi:nodetypes="sscscscccccccccsscsssccscs" /><path
         d="m 71.966222,114.93332 q -1.23049,0 -2.020713,-0.22578 -0.778934,-0.23707 -1.219201,-0.53058 -0.428978,-0.3048 -0.598312,-0.508 l 0.835379,-2.14489 q 0.496711,0.4064 1.264357,0.80151 0.778934,0.39511 1.806224,0.39511 0.801512,0 1.117601,-0.32737 0.327378,-0.32738 0.327378,-0.71121 0,-0.53057 -0.733779,-0.95955 -0.733778,-0.42898 -1.704624,-0.84667 -0.575734,-0.24836 -1.219201,-0.63218 -0.643467,-0.38382 -1.106312,-1.016 -0.451556,-0.63218 -0.451556,-1.6256 0,-1.524 1.106312,-2.42711 1.117601,-0.9144 3.160892,-0.9144 1.309513,0 2.212625,0.39511 0.914401,0.38382 1.219201,0.68862 l -0.767645,2.032 q -0.440267,-0.33867 -1.117601,-0.64347 -0.677334,-0.3048 -1.456269,-0.3048 -0.857956,0 -1.196623,0.22578 -0.338667,0.22578 -0.338667,0.72249 0,0.55316 0.598312,0.9144 0.6096,0.34996 1.456268,0.68863 1.411112,0.55315 2.269069,1.36595 0.869245,0.80151 0.869245,2.04329 0,0.92569 -0.428978,1.73849 -0.428978,0.80152 -1.377246,1.30952 -0.948268,0.49671 -2.506136,0.49671 z"
         id="text4"
         style="font-size:22.5778px;line-height:0;font-family:Alatsi;-inkscape-font-specification:Alatsi;text-align:center;fill:#ffffff;stroke-width:7.006"
         aria-label="s" /><path
         d="m 18.158474,97.54037 c -1.053354,0.02606 -2.098554,0.244995 -3.081982,0.65164 -1.573467,0.650634 -2.918248,1.752538 -3.864364,3.16622 -0.946111,1.41366 -1.4507619,3.07531 -1.4505575,4.77541 -2.044e-4,1.70012 0.5044465,3.36229 1.4505575,4.77594 0.946116,1.41367 2.290897,2.51559 3.864364,3.16622 1.573486,0.65064 3.305025,0.82059 4.975406,0.48885 1.670404,-0.33172 3.204845,-1.15004 4.409034,-2.35231 l 0.07028,-0.076 8.590173,-9.68261 c 0.72608,-0.71168 1.647308,-1.19364 2.646867,-1.38493 0.999359,-0.19128 2.033008,-0.0835 2.971395,0.30954 0.938385,0.39313 1.739667,1.05414 2.303218,1.90014 0.563352,0.84602 0.86403,1.83922 0.86403,2.85512 0,1.01592 -0.300678,2.00964 -0.86403,2.85564 -0.563551,0.84601 -1.364833,1.50703 -2.303218,1.90015 -0.938387,0.39311 -1.972036,0.50082 -2.971395,0.30954 -0.999559,-0.19129 -1.920787,-0.67324 -2.646867,-1.38493 l -2.473755,2.39831 c 1.204269,1.20192 2.738252,2.02027 4.408517,2.3518 1.670262,0.33154 3.401066,0.16121 4.974373,-0.48938 0.940792,-0.38904 1.797396,-0.94236 2.538346,-1.62419 v 2.27939 h 2.777093 v -8.5958 c 0,-1.6999 -0.505091,-3.36198 -1.451074,-4.77542 -0.946184,-1.413432 -2.291058,-2.515105 -3.864364,-3.165696 -1.573307,-0.650591 -3.304111,-0.820904 -4.974373,-0.489376 -1.670265,0.33153 -3.204248,1.14988 -4.408517,2.351792 l -0.07028,0.076 -8.59069,9.68261 c -0.726259,0.71169 -1.646831,1.19364 -2.64635,1.38493 -0.999519,0.19128 -2.033465,0.0835 -2.971912,-0.30954 -0.938425,-0.39312 -1.739767,-1.05414 -2.303218,-1.90015 -0.563471,-0.846 -0.86403,-1.83972 -0.86403,-2.85564 0,-1.0159 0.300559,-2.0091 0.86403,-2.85512 0.563451,-0.846 1.364793,-1.50701 2.303218,-1.90014 0.938447,-0.3931 1.972393,-0.50082 2.971912,-0.30954 0.999519,0.19129 1.920091,0.67325 2.64635,1.38493 l 2.474272,-2.3983 C 23.256741,98.853206 21.7223,98.034377 20.051896,97.702644 19.425503,97.578245 18.790484,97.524743 18.158472,97.54038 Z"
         style="fill:#ffffff;stroke-width:0.199913"
         id="path14"
         sodipodi:nodetypes="csscsscccccccscscccsscccccsscccsccsscsccscc" /></g><path
       d="m 96.040346,122.46761 c -2.382891,-1.42812 -3.336026,-3.80829 -5.71889,-3.80829 -0.953161,0 -1.906296,0.95209 -1.906296,1.90414 0,0.47603 0,0.95207 0.476567,1.42811 0,0 -0.953145,0.15232 -2.382866,-0.95208 v 2.85621 c 1.429721,-0.95208 2.382866,-0.95208 2.382866,-0.95208 -0.476567,0.47604 -0.476567,0.95208 -0.476567,1.42812 0,0.95207 0.953135,1.90412 1.906296,1.90412 2.382864,0 3.335999,-2.38016 5.71889,-3.80825 z"
       fill="#ffffff"
       id="path1-0"
       style="stroke-width:0.264583" /><path
       d="m -15.208203,68.29526 c 0,-1.094872 0.953146,-2.046948 2.001613,-2.046948 1.224782,0.04284 1.729951,0.933026 1.810967,1.075822 -0.238284,-0.476012 -0.238284,-1.17102 -0.238284,-1.17102 0,-1.190098 0.857832,-2.142167 2.0492774,-2.142167 1.1914187,0 2.0015993,0.952069 2.0015993,2.142167 0,0 0,0.714031 -0.4765675,1.666108 0,0 0.953135,0.142822 2.382864,-0.952077 v 2.856204 c -1.429729,-1.094872 -2.382864,-0.95205 -2.382864,-0.95205 0.4765675,0.95205 0.4765675,1.666107 0.4765675,1.666107 0,1.190096 -0.8101806,2.142146 -2.0015993,2.142146 -1.1914454,0 -2.0492774,-0.95205 -2.0492774,-2.142146 0,0 0,-0.695007 0.238284,-1.171045 -0.08102,0.142822 -0.586185,1.033012 -1.810967,1.075848 -1.048467,0 -2.001613,-0.952076 -2.001613,-2.046949 z"
       fill="#ffffff"
       id="path1-4"
       style="stroke-width:0.264583" /><path
       d="m 91.274591,71.627486 -4.76573,-3.332241 4.76573,-3.332232 4.765755,3.332232"
       fill="#0ddf72"
       id="path1-7"
       style="stroke-width:0.264583" /><path
       d="m -6.0699091,122.4676 -0.6290734,0.69025 c -2.2255956,2.45158 -3.6982135,4.07008 -5.4948935,4.07008 -1.472617,0 -2.621152,-1.15199 -2.621152,-2.61818 0,-0.8283 0.386024,-1.62327 0.991272,-2.14215 -0.605248,-0.51887 -0.991272,-1.31386 -0.991272,-2.14214 0,-1.4662 1.148535,-2.6182 2.621152,-2.6182 1.79668,0 3.2692979,1.61851 5.4948935,4.0701 z"
       fill="#0ddf72"
       id="path1-9"
       style="stroke-width:0.264583" /></g></svg>
