<svg width="178" height="86" viewBox="0 0 178 86" fill="none" xmlns="http://www.w3.org/2000/svg">
<path d="M0 43C-0.00102234 51.5043 2.52449 59.8179 7.25713 66.8893C11.9898 73.9608 18.7169 79.4723 26.5877 82.7269C34.4586 85.9815 43.1195 86.833 51.4751 85.1736C59.8308 83.5142 67.5057 79.4185 73.5293 73.4045L73.8811 73.0247L116.852 24.591C120.484 21.031 125.09 18.6214 130.09 17.6645C135.089 16.7077 140.261 17.2462 144.955 19.2126C149.649 21.1791 153.657 24.4857 156.476 28.7176C159.294 32.9495 160.798 37.9182 160.798 43C160.798 48.0818 159.294 53.0505 156.476 57.2824C153.657 61.5143 149.649 64.8209 144.955 66.7874C140.261 68.7538 135.089 69.2923 130.09 68.3355C125.09 67.3786 120.484 64.969 116.852 61.409L114.641 58.9153C113.891 58.0683 112.981 57.3771 111.963 56.8812C110.946 56.3852 109.841 56.0941 108.71 56.0246C107.58 55.955 106.447 56.1084 105.377 56.4759C104.306 56.8434 103.318 57.4178 102.469 58.1664C101.621 58.915 100.929 59.8231 100.432 60.8388C99.9349 61.8545 99.6433 62.9579 99.5736 64.0861C99.504 65.2143 99.6576 66.3452 100.026 67.4141C100.394 68.483 100.969 69.4691 101.719 70.316L104.124 73.0247L104.476 73.4045C110.5 79.4167 118.174 83.5108 126.529 85.1692C134.884 86.8276 143.543 85.9757 151.413 82.7213C159.283 79.4669 166.009 73.9562 170.742 66.8859C175.474 59.8156 178 51.5033 178 43C178 34.4967 175.474 26.1844 170.742 19.1141C166.009 12.0438 159.283 6.53304 151.413 3.27865C143.543 0.0242622 134.884 -0.827604 126.529 0.83077C118.174 2.48915 110.5 6.58328 104.476 12.5955L104.124 12.9753L61.1536 61.409C57.5207 64.969 52.9154 67.3786 47.9156 68.3355C42.9158 69.2923 37.7443 68.7538 33.05 66.7874C28.3558 64.8209 24.3479 61.5143 21.5294 57.2824C18.7108 53.0505 17.2072 48.0818 17.2072 43C17.2072 37.9182 18.7108 32.9495 21.5294 28.7176C24.3479 24.4857 28.3558 21.1791 33.05 19.2126C37.7443 17.2462 42.9158 16.7077 47.9156 17.6645C52.9154 18.6214 57.5207 21.031 61.1536 24.591L63.3646 27.0847C64.1145 27.9317 65.0242 28.6229 66.0417 29.1188C67.0592 29.6148 68.1646 29.9059 69.2948 29.9754C70.425 30.045 71.5578 29.8916 72.6287 29.5241C73.6995 29.1566 74.6873 28.5822 75.5357 27.8336C76.3842 27.085 77.0766 26.1769 77.5734 25.1612C78.0703 24.1455 78.3619 23.042 78.4315 21.9139C78.5012 20.7857 78.3475 19.6548 77.9794 18.5859C77.6113 17.517 77.0358 16.5309 76.2859 15.6839L73.8811 12.9753L73.5293 12.5955C67.5057 6.58152 59.8308 2.48583 51.4751 0.826435C43.1195 -0.832956 34.4586 0.018492 26.5877 3.27309C18.7169 6.52769 11.9898 12.0392 7.25713 19.1107C2.52449 26.1821 -0.00102234 34.4957 0 43Z" fill="white"/>
</svg>
