<?xml version="1.0" encoding="UTF-8" standalone="no"?>
<!-- Created with Inkscape (http://www.inkscape.org/) -->

<svg
   width="249.97285mm"
   height="187.51381mm"
   viewBox="0 0 249.97286 187.51381"
   version="1.1"
   id="svg1"
   inkscape:version="1.3.2 (091e20e, 2023-11-25, custom)"
   sodipodi:docname="shapes.svg"
   xmlns:inkscape="http://www.inkscape.org/namespaces/inkscape"
   xmlns:sodipodi="http://sodipodi.sourceforge.net/DTD/sodipodi-0.dtd"
   xmlns="http://www.w3.org/2000/svg"
   xmlns:svg="http://www.w3.org/2000/svg">
  <sodipodi:namedview
     id="namedview1"
     pagecolor="#505050"
     bordercolor="#eeeeee"
     borderopacity="1"
     inkscape:showpageshadow="0"
     inkscape:pageopacity="0"
     inkscape:pagecheckerboard="0"
     inkscape:deskcolor="#505050"
     inkscape:document-units="mm"
     inkscape:zoom="1.3556054"
     inkscape:cx="320.52099"
     inkscape:cy="261.13793"
     inkscape:window-width="3840"
     inkscape:window-height="2054"
     inkscape:window-x="3829"
     inkscape:window-y="-11"
     inkscape:window-maximized="1"
     inkscape:current-layer="layer1"
     showgrid="true">
    <inkscape:grid
       id="grid6"
       units="mm"
       originx="16.743002"
       originy="-98.73037"
       spacingx="0.99999998"
       spacingy="1"
       empcolor="#0099e5"
       empopacity="0.30196078"
       color="#0099e5"
       opacity="0.14901961"
       empspacing="5"
       dotted="false"
       gridanglex="30"
       gridanglez="30"
       visible="true" />
  </sodipodi:namedview>
  <defs
     id="defs1" />
  <g
     inkscape:label="Layer 1"
     inkscape:groupmode="layer"
     id="layer1"
     transform="translate(16.743001,-98.730374)">
    <path
       id="rect26"
       style="fill:#0ddf72;fill-opacity:1;stroke:none;stroke-width:7.43947;stroke-linecap:round;stroke-linejoin:miter;stroke-dasharray:none;stroke-opacity:1"
       d="m 170.7307,161.24385 -125.00012,5.1e-4 V 286.24397 H 170.7307 Z m -4.69894,4.99969 -0.30075,115.00022 H 50.73079 v -114.9997 z m -5.30096,5.00021 -105.00032,5.2e-4 5.2e-4,104.9998 h 104.9998 z m -4.69894,4.9997 -0.30128,95.0004 H 60.7307 v -94.99988 z m -5.30097,5.00073 h -85.0005 l 5.2e-4,84.99998 h 84.99998 z m -4.69894,4.99969 -0.30127,75.00008 H 70.7306 v -75.00008 z m -5.30097,5.00022 H 75.73081 v 64.99965 h 65.00017 z m -4.69893,4.99969 -0.30128,55.00026 H 80.73102 v -55.00026 z m -5.30149,5.00021 -44.99984,5.2e-4 v 44.99932 h 44.99984 z m -4.69894,4.9997 -0.30075,35.00044 H 90.73093 V 206.2442 Z"
       inkscape:label="Square" />
    <path
       id="path31"
       style="fill:#0ddf72;fill-opacity:1;stroke:none;stroke-width:4.99999;stroke-linecap:round;stroke-linejoin:miter;stroke-dasharray:none;stroke-opacity:1"
       inkscape:label="Circle"
       d="M 233.22984,161.18961 A 62.499996,62.5 0 0 0 170.7029,98.73038 62.499996,62.5 0 0 0 108.22971,161.24387 h 5.00021 a 57.5,57.500004 0 0 1 0,-10e-4 57.5,57.500004 0 0 1 57.47504,-57.51228 57.5,57.500004 0 0 1 57.52518,57.46264 57.5,57.500004 0 0 1 -57.45025,57.53705 h -0.0501 v 5.00021 h 0.0543 a 62.499996,62.5 0 0 0 62.44575,-62.54088 z m -9.99991,0.007 a 52.499996,52.5 0 0 0 -52.5229,-52.46605 52.499996,52.5 0 0 0 -52.4769,52.51153 52.499996,52.5 0 0 0 0,0.002 h 4.99969 a 47.5,47.5 0 0 1 0,-0.003 47.5,47.5 0 0 1 47.47928,-47.51028 47.5,47.5 0 0 1 47.52062,47.46894 47.5,47.5 0 0 1 -47.45861,47.53094 h -0.0413 v 5.00021 h 0.046 a 52.499996,52.5 0 0 0 52.45412,-52.53457 z m -9.9999,0.007 a 42.499996,42.5 0 0 0 -42.51835,-42.47234 42.499996,42.5 0 0 0 -42.48164,42.50903 42.499996,42.5 0 0 0 5.1e-4,0.004 h 4.99918 a 37.5,37.5 0 0 1 0,-0.005 37.5,37.5 0 0 1 37.48402,-37.5082 37.5,37.5 0 0 1 37.51606,37.47575 37.5,37.5 0 0 1 -37.46749,37.52432 h -0.0326 v 5.00021 h 0.0372 a 42.499996,42.5 0 0 0 42.46311,-42.52833 z m -9.99991,0.006 a 32.5,32.5 0 0 0 -32.51431,-32.47864 32.5,32.5 0 0 0 -32.48587,32.50706 32.5,32.5 0 0 0 5.2e-4,0.006 h 5.00073 a 27.499996,27.5 0 0 1 -0.001,-0.007 27.499996,27.5 0 0 1 27.48773,-27.50633 27.499996,27.5 0 0 1 27.51202,27.48205 27.499996,27.5 0 0 1 -27.47584,27.51821 h -0.0243 v 4.99969 h 0.0284 a 32.5,32.5 0 0 0 32.47192,-32.521 z m -10.00043,0.007 a 22.5,22.500002 0 0 0 -22.50974,-22.48545 22.5,22.500002 0 0 0 -22.4901,22.50509 22.5,22.500002 0 0 0 0.001,0.008 h 4.9997 a 17.65053,17.500151 0 0 1 -5.2e-4,-0.01 17.65053,17.500151 0 0 1 17.64285,-17.50384 17.65053,17.500151 0 0 1 17.65784,17.48885 17.65053,17.500151 0 0 1 -17.6351,17.5116 h -0.015 a 17.65053,17.500151 0 0 1 -0.15085,-0.007 v 5.00641 h 0.0196 a 22.5,22.500002 0 0 0 22.48029,-22.51439 z" />
    <path
       id="path36"
       style="fill:#0ddf72;fill-opacity:1;stroke:none;stroke-width:4.99999;stroke-linecap:round;stroke-linejoin:miter;stroke-dasharray:none;stroke-opacity:1"
       inkscape:label="Circle"
       d="m 45.73019,191.24385 c -34.5126,0.0148 -62.48065,28.0009 -62.47319,62.5135 h 5.1e-4 v 32.48645 h 4.99918 v -32.48645 h 5.2e-4 v -0.001 c -0.007,-31.75061 25.72238,-57.49733 57.47298,-57.51225 z m 0,10.00042 c -28.98861,0.015 -52.4788499,23.52239 -52.4727699,52.51101 v 0.002 h -5.2e-4 l 5.2e-4,32.48645 h 4.9997 v -32.48645 -0.003 c -0.005,-26.22682 21.2462499,-47.49489 47.4730699,-47.50976 z m 0,10.00094 c -23.46483,0.015 -42.4775699,19.04368 -42.4728599,42.50852 l 5.1e-4,0.004 h -5.1e-4 l 5.1e-4,32.48645 h 5.00022 v -32.48645 h -5.2e-4 l -5.2e-4,-0.005 C 8.2530201,233.04969 25.02715,216.26027 45.73019,216.24546 Z m 0,9.99991 c -17.94105,0.0149 -32.47629,14.56498 -32.47296,32.50603 l 5.2e-4,0.006 v 32.48645 h 5.00021 v -32.48645 l -5.1e-4,-0.007 c -0.003,-15.17906 12.29369,-27.48974 27.47274,-27.50478 z m 0,10.00146 c -12.41706,0.0149 -22.47472,10.08595 -22.47305,22.50302 l 5.2e-4,0.008 h 5.1e-4 v 32.48645 h 5.00022 V 253.7576 l -10e-4,-0.01 c 0.01,-9.58946 7.80146,-17.38509 17.47284,-17.48162 z m 0,10.00094 c -6.89267,0.0148 -12.47259,5.60629 -12.47314,12.49898 l 0.002,0.0109 v 32.48645 h 5.00021 V 253.7574 l -0.002,-0.0119 c 0.002,-4.1307 3.34278,-7.48259 7.47345,-7.49721 z"
       sodipodi:nodetypes="cccccccscccscccccsccccccccccccccccccccccccccccccccccccccccc" />
  </g>
</svg>
